#tb 0: 1/22050
#media_type 0: audio
#codec_id 0: pcm_s16le
#sample_rate 0: 22050
#channel_layout_name 0: mono
0,          0,          0,    11024,    22048, 0x0843bbad
0,      11024,      11024,     1470,     2940, 0x16ff454e
0,      12494,      12494,     1470,     2940, 0xffc43fc2
0,      13964,      13964,     1470,     2940, 0x4bdbdcf4
0,      15434,      15434,     1470,     2940, 0xad9fb7c2
0,      16904,      16904,     1470,     2940, 0x7e09e2f3
0,      18374,      18374,     1470,     2940, 0x3fd8194d
0,      19844,      19844,     1470,     2940, 0x3f84e41c
0,      21314,      21314,     1470,     2940, 0x4d49c1bc
0,      22784,      22784,     1470,     2940, 0x802fcec0
0,      24254,      24254,     1470,     2940, 0x73bfca27
0,      25724,      25724,     1470,     2940, 0x55510c6d
0,      27194,      27194,     1470,     2940, 0x417dca08
0,      28664,      28664,     1470,     2940, 0x794acbd6
0,      30134,      30134,     1470,     2940, 0x7de4a788
0,      31604,      31604,     1470,     2940, 0xeea8a64a
0,      33074,      33074,     1470,     2940, 0x1e45f779
0,      34544,      34544,     1470,     2940, 0x795eda85
0,      36014,      36014,     1470,     2940, 0xfe12f067
0,      37484,      37484,     1470,     2940, 0x5b3bee02
0,      38954,      38954,     1470,     2940, 0x6870b61c
0,      40424,      40424,     1470,     2940, 0xfcd8d411
0,      41894,      41894,     1470,     2940, 0x6433d298
0,      43364,      43364,     1470,     2940, 0xb810c944
0,      44834,      44834,     1470,     2940, 0xa0f2deab
0,      46304,      46304,     1470,     2940, 0x1c06b258
0,      47774,      47774,     1470,     2940, 0x0664b374
0,      49244,      49244,     1470,     2940, 0xaafad6c2
0,      50714,      50714,     1470,     2940, 0x7348e80a
0,      52184,      52184,     1470,     2940, 0xc3d3d384
0,      53654,      53654,     1470,     2940, 0x58ecd933
0,      55124,      55124,     1470,     2940, 0xe93efa02
0,      56594,      56594,     1470,     2940, 0x71fada5c
0,      58064,      58064,     1470,     2940, 0x7ea7a8dd
0,      59534,      59534,     1470,     2940, 0x0e73c977
0,      61004,      61004,     1470,     2940, 0x2c09c91b
0,      62474,      62474,     1470,     2940, 0xade3bc63
0,      63944,      63944,     1470,     2940, 0x10049fba
0,      65414,      65414,     1470,     2940, 0xf873b7de
0,      66884,      66884,     1470,     2940, 0x223dcc39
